<svg xmlns="http://www.w3.org/2000/svg" xmlns:xlink="http://www.w3.org/1999/xlink" width="500" zoomAndPan="magnify" viewBox="0 0 375 374.999991" height="500" preserveAspectRatio="xMidYMid meet" version="1.2"><defs><clipPath id="aaf9e3a0c3"><path d="M 2.496094 2.496094 L 372.246094 2.496094 L 372.246094 372.246094 L 2.496094 372.246094 Z M 2.496094 2.496094 "/></clipPath></defs><g id="1b9fd7643e"><g clip-rule="nonzero" clip-path="url(#aaf9e3a0c3)"><path style=" stroke:none;fill-rule:nonzero;fill:#8b8a8a;fill-opacity:1;" d="M 372.234375 187.359375 C 372.234375 190.386719 372.160156 193.410156 372.011719 196.433594 C 371.863281 199.453125 371.640625 202.46875 371.34375 205.480469 C 371.046875 208.492188 370.675781 211.496094 370.234375 214.488281 C 369.789062 217.480469 369.273438 220.460938 368.683594 223.429688 C 368.089844 226.394531 367.429688 229.347656 366.695312 232.28125 C 365.957031 235.214844 365.152344 238.132812 364.273438 241.027344 C 363.394531 243.921875 362.445312 246.792969 361.425781 249.644531 C 360.40625 252.492188 359.320312 255.3125 358.160156 258.109375 C 357.003906 260.902344 355.777344 263.667969 354.484375 266.40625 C 353.191406 269.140625 351.832031 271.839844 350.40625 274.507812 C 348.976562 277.179688 347.488281 279.808594 345.933594 282.40625 C 344.375 285 342.757812 287.554688 341.078125 290.070312 C 339.394531 292.585938 337.65625 295.058594 335.851562 297.488281 C 334.050781 299.921875 332.1875 302.304688 330.269531 304.644531 C 328.351562 306.980469 326.375 309.273438 324.34375 311.515625 C 322.3125 313.757812 320.226562 315.945312 318.085938 318.085938 C 315.945312 320.226562 313.757812 322.3125 311.515625 324.34375 C 309.273438 326.375 306.980469 328.351562 304.644531 330.269531 C 302.304688 332.1875 299.921875 334.050781 297.488281 335.851562 C 295.058594 337.65625 292.585938 339.398438 290.070312 341.078125 C 287.554688 342.757812 285 344.375 282.40625 345.933594 C 279.808594 347.488281 277.179688 348.976562 274.507812 350.40625 C 271.839844 351.832031 269.140625 353.191406 266.40625 354.484375 C 263.667969 355.777344 260.902344 357.003906 258.109375 358.160156 C 255.3125 359.320312 252.492188 360.40625 249.644531 361.425781 C 246.792969 362.445312 243.921875 363.394531 241.027344 364.273438 C 238.132812 365.152344 235.214844 365.957031 232.28125 366.695312 C 229.347656 367.429688 226.394531 368.089844 223.429688 368.683594 C 220.460938 369.273438 217.480469 369.789062 214.488281 370.234375 C 211.496094 370.675781 208.492188 371.046875 205.480469 371.34375 C 202.46875 371.640625 199.453125 371.863281 196.433594 372.011719 C 193.410156 372.160156 190.386719 372.234375 187.359375 372.234375 C 184.335938 372.234375 181.3125 372.160156 178.289062 372.011719 C 175.269531 371.863281 172.25 371.640625 169.238281 371.34375 C 166.230469 371.046875 163.226562 370.675781 160.234375 370.234375 C 157.242188 369.789062 154.261719 369.273438 151.292969 368.683594 C 148.328125 368.089844 145.375 367.429688 142.441406 366.695312 C 139.503906 365.957031 136.589844 365.152344 133.695312 364.273438 C 130.800781 363.394531 127.925781 362.445312 125.078125 361.425781 C 122.230469 360.40625 119.40625 359.320312 116.613281 358.160156 C 113.816406 357.003906 111.050781 355.777344 108.316406 354.484375 C 105.582031 353.191406 102.878906 351.832031 100.210938 350.40625 C 97.542969 348.976562 94.914062 347.488281 92.316406 345.933594 C 89.722656 344.375 87.167969 342.757812 84.652344 341.078125 C 82.136719 339.394531 79.664062 337.65625 77.230469 335.851562 C 74.800781 334.050781 72.417969 332.1875 70.078125 330.269531 C 67.738281 328.351562 65.449219 326.375 63.207031 324.34375 C 60.964844 322.3125 58.773438 320.226562 56.636719 318.085938 C 54.496094 315.945312 52.410156 313.757812 50.378906 311.515625 C 48.347656 309.273438 46.371094 306.980469 44.453125 304.644531 C 42.53125 302.304688 40.671875 299.921875 38.871094 297.488281 C 37.066406 295.058594 35.324219 292.585938 33.644531 290.070312 C 31.964844 287.554688 30.34375 285 28.789062 282.40625 C 27.234375 279.808594 25.742188 277.179688 24.316406 274.507812 C 22.890625 271.839844 21.53125 269.140625 20.238281 266.40625 C 18.945312 263.667969 17.71875 260.902344 16.558594 258.109375 C 15.402344 255.3125 14.3125 252.492188 13.292969 249.644531 C 12.273438 246.792969 11.328125 243.921875 10.449219 241.027344 C 9.570312 238.132812 8.761719 235.214844 8.027344 232.28125 C 7.292969 229.347656 6.628906 226.394531 6.039062 223.429688 C 5.449219 220.460938 4.933594 217.480469 4.488281 214.488281 C 4.042969 211.496094 3.675781 208.492188 3.378906 205.480469 C 3.082031 202.46875 2.859375 199.453125 2.710938 196.433594 C 2.5625 193.410156 2.488281 190.386719 2.488281 187.359375 C 2.488281 184.335938 2.5625 181.3125 2.710938 178.289062 C 2.859375 175.269531 3.082031 172.25 3.378906 169.238281 C 3.675781 166.230469 4.042969 163.226562 4.488281 160.234375 C 4.933594 157.242188 5.449219 154.261719 6.039062 151.292969 C 6.628906 148.328125 7.292969 145.375 8.027344 142.441406 C 8.761719 139.503906 9.570312 136.589844 10.449219 133.695312 C 11.328125 130.800781 12.273438 127.925781 13.292969 125.078125 C 14.3125 122.230469 15.402344 119.40625 16.558594 116.613281 C 17.71875 113.816406 18.945312 111.050781 20.238281 108.316406 C 21.53125 105.582031 22.890625 102.878906 24.316406 100.210938 C 25.742188 97.542969 27.234375 94.914062 28.789062 92.316406 C 30.34375 89.722656 31.964844 87.167969 33.644531 84.652344 C 35.324219 82.136719 37.066406 79.664062 38.871094 77.230469 C 40.671875 74.800781 42.53125 72.417969 44.453125 70.078125 C 46.371094 67.738281 48.347656 65.449219 50.378906 63.207031 C 52.410156 60.964844 54.496094 58.773438 56.636719 56.636719 C 58.773438 54.496094 60.964844 52.410156 63.207031 50.378906 C 65.449219 48.347656 67.738281 46.371094 70.078125 44.453125 C 72.417969 42.53125 74.800781 40.671875 77.230469 38.871094 C 79.664062 37.066406 82.136719 35.324219 84.652344 33.644531 C 87.167969 31.964844 89.722656 30.34375 92.316406 28.789062 C 94.914062 27.234375 97.542969 25.742188 100.210938 24.316406 C 102.878906 22.890625 105.582031 21.53125 108.316406 20.238281 C 111.050781 18.945312 113.816406 17.71875 116.613281 16.558594 C 119.40625 15.402344 122.230469 14.3125 125.078125 13.292969 C 127.925781 12.273438 130.800781 11.328125 133.695312 10.449219 C 136.589844 9.570312 139.503906 8.761719 142.441406 8.027344 C 145.375 7.292969 148.328125 6.628906 151.292969 6.039062 C 154.261719 5.449219 157.242188 4.933594 160.234375 4.488281 C 163.226562 4.042969 166.230469 3.675781 169.238281 3.378906 C 172.25 3.082031 175.269531 2.859375 178.289062 2.710938 C 181.3125 2.5625 184.335938 2.488281 187.359375 2.488281 C 190.386719 2.488281 193.410156 2.5625 196.433594 2.710938 C 199.453125 2.859375 202.46875 3.082031 205.480469 3.378906 C 208.492188 3.675781 211.496094 4.042969 214.488281 4.488281 C 217.480469 4.933594 220.460938 5.449219 223.429688 6.039062 C 226.394531 6.628906 229.347656 7.292969 232.28125 8.027344 C 235.214844 8.761719 238.132812 9.570312 241.027344 10.449219 C 243.921875 11.328125 246.792969 12.273438 249.644531 13.292969 C 252.492188 14.3125 255.3125 15.402344 258.109375 16.558594 C 260.902344 17.71875 263.667969 18.945312 266.40625 20.238281 C 269.140625 21.53125 271.839844 22.890625 274.507812 24.316406 C 277.179688 25.742188 279.808594 27.234375 282.40625 28.789062 C 285 30.34375 287.554688 31.964844 290.070312 33.644531 C 292.585938 35.324219 295.058594 37.066406 297.488281 38.871094 C 299.921875 40.671875 302.304688 42.53125 304.644531 44.453125 C 306.980469 46.371094 309.273438 48.347656 311.515625 50.378906 C 313.757812 52.410156 315.945312 54.496094 318.085938 56.636719 C 320.226562 58.773438 322.3125 60.964844 324.34375 63.207031 C 326.375 65.449219 328.351562 67.738281 330.269531 70.078125 C 332.1875 72.417969 334.050781 74.800781 335.851562 77.230469 C 337.65625 79.664062 339.398438 82.136719 341.078125 84.652344 C 342.757812 87.167969 344.375 89.722656 345.933594 92.316406 C 347.488281 94.914062 348.976562 97.542969 350.40625 100.210938 C 351.832031 102.878906 353.191406 105.582031 354.484375 108.316406 C 355.777344 111.050781 357.003906 113.816406 358.160156 116.613281 C 359.320312 119.40625 360.40625 122.230469 361.425781 125.078125 C 362.445312 127.925781 363.394531 130.800781 364.273438 133.695312 C 365.152344 136.589844 365.957031 139.503906 366.695312 142.441406 C 367.429688 145.375 368.089844 148.328125 368.683594 151.292969 C 369.273438 154.261719 369.789062 157.242188 370.234375 160.234375 C 370.675781 163.226562 371.046875 166.230469 371.34375 169.238281 C 371.640625 172.25 371.863281 175.269531 372.011719 178.289062 C 372.160156 181.3125 372.234375 184.335938 372.234375 187.359375 Z M 372.234375 187.359375 "/></g><path style=" stroke:none;fill-rule:nonzero;fill:#151515;fill-opacity:1;" d="M 229.144531 124.210938 C 229.144531 125.578125 229.078125 126.941406 228.941406 128.304688 C 228.808594 129.667969 228.609375 131.019531 228.339844 132.359375 C 228.074219 133.703125 227.742188 135.027344 227.34375 136.339844 C 226.949219 137.648438 226.488281 138.933594 225.964844 140.199219 C 225.441406 141.464844 224.855469 142.699219 224.210938 143.90625 C 223.566406 145.113281 222.863281 146.285156 222.101562 147.421875 C 221.34375 148.5625 220.527344 149.660156 219.660156 150.714844 C 218.792969 151.773438 217.875 152.785156 216.90625 153.753906 C 215.9375 154.722656 214.925781 155.640625 213.867188 156.507812 C 212.808594 157.375 211.710938 158.191406 210.574219 158.949219 C 209.4375 159.710938 208.265625 160.414062 207.058594 161.058594 C 205.851562 161.703125 204.613281 162.289062 203.351562 162.8125 C 202.085938 163.335938 200.800781 163.796875 199.488281 164.195312 C 198.179688 164.589844 196.855469 164.921875 195.511719 165.191406 C 194.171875 165.457031 192.816406 165.65625 191.457031 165.792969 C 190.09375 165.925781 188.730469 165.992188 187.359375 165.992188 C 185.992188 165.992188 184.628906 165.925781 183.265625 165.792969 C 181.902344 165.65625 180.550781 165.457031 179.210938 165.191406 C 177.867188 164.921875 176.542969 164.589844 175.230469 164.195312 C 173.921875 163.796875 172.636719 163.335938 171.371094 162.8125 C 170.105469 162.289062 168.871094 161.703125 167.664062 161.058594 C 166.457031 160.414062 165.285156 159.710938 164.148438 158.949219 C 163.007812 158.191406 161.910156 157.375 160.855469 156.507812 C 159.796875 155.640625 158.78125 154.722656 157.816406 153.753906 C 156.847656 152.785156 155.929688 151.773438 155.0625 150.714844 C 154.195312 149.660156 153.378906 148.5625 152.621094 147.421875 C 151.859375 146.285156 151.15625 145.113281 150.511719 143.90625 C 149.867188 142.699219 149.28125 141.464844 148.757812 140.199219 C 148.234375 138.933594 147.773438 137.648438 147.375 136.339844 C 146.980469 135.027344 146.648438 133.703125 146.378906 132.359375 C 146.113281 131.019531 145.914062 129.667969 145.777344 128.304688 C 145.644531 126.941406 145.578125 125.578125 145.578125 124.210938 C 145.578125 122.839844 145.644531 121.476562 145.777344 120.113281 C 145.914062 118.753906 146.113281 117.398438 146.378906 116.058594 C 146.648438 114.714844 146.980469 113.390625 147.375 112.082031 C 147.773438 110.769531 148.234375 109.484375 148.757812 108.21875 C 149.28125 106.957031 149.867188 105.71875 150.511719 104.511719 C 151.15625 103.304688 151.859375 102.132812 152.621094 100.996094 C 153.378906 99.859375 154.195312 98.761719 155.0625 97.703125 C 155.929688 96.644531 156.847656 95.632812 157.816406 94.664062 C 158.78125 93.695312 159.796875 92.777344 160.855469 91.910156 C 161.910156 91.042969 163.007812 90.226562 164.148438 89.46875 C 165.285156 88.707031 166.457031 88.003906 167.664062 87.359375 C 168.871094 86.714844 170.105469 86.128906 171.371094 85.605469 C 172.636719 85.082031 173.921875 84.621094 175.230469 84.226562 C 176.542969 83.828125 177.867188 83.496094 179.210938 83.230469 C 180.550781 82.960938 181.902344 82.761719 183.265625 82.628906 C 184.628906 82.492188 185.992188 82.425781 187.359375 82.425781 C 188.730469 82.425781 190.09375 82.492188 191.457031 82.628906 C 192.816406 82.761719 194.171875 82.960938 195.511719 83.230469 C 196.855469 83.496094 198.179688 83.828125 199.488281 84.226562 C 200.800781 84.621094 202.085938 85.082031 203.351562 85.605469 C 204.613281 86.128906 205.851562 86.714844 207.058594 87.359375 C 208.265625 88.003906 209.4375 88.707031 210.574219 89.46875 C 211.710938 90.226562 212.808594 91.042969 213.867188 91.910156 C 214.925781 92.777344 215.9375 93.695312 216.90625 94.664062 C 217.875 95.632812 218.792969 96.644531 219.660156 97.703125 C 220.527344 98.761719 221.34375 99.859375 222.101562 100.996094 C 222.863281 102.132812 223.566406 103.304688 224.210938 104.511719 C 224.855469 105.71875 225.441406 106.957031 225.964844 108.21875 C 226.488281 109.484375 226.949219 110.769531 227.34375 112.082031 C 227.742188 113.390625 228.074219 114.714844 228.339844 116.058594 C 228.609375 117.398438 228.808594 118.753906 228.941406 120.113281 C 229.078125 121.476562 229.144531 122.839844 229.144531 124.210938 Z M 229.144531 124.210938 "/><path style=" stroke:none;fill-rule:nonzero;fill:#151515;fill-opacity:1;" d="M 265.257812 260.027344 C 265.257812 303.050781 109.464844 303.050781 109.464844 260.027344 C 109.464844 217.007812 144.339844 182.132812 187.359375 182.132812 C 230.382812 182.132812 265.257812 217.007812 265.257812 260.027344 Z M 265.257812 260.027344 "/></g></svg>